{
  "accessors": [
    {
      "bufferView": 2,
      "componentType": 5126,
      "count": 438,
      "max": [
        0.5885676741600037,
        0.03749420493841171,
        2.195634365081787
      ],
      "min": [
        -0.5842903852462769,
        -0.0338069386780262,
        -0.3874964714050293
      ],
      "type": "VEC3"
    },
    {
      "bufferView": 2,
      "byteOffset": 5256,
      "componentType": 5126,
      "count": 438,
      "max": [
        1.0,
        1.0,
        1.0
      ],
      "min": [
        -1.0,
        -1.0,
        -1.0
      ],
      "type": "VEC3"
    },
    {
      "bufferView": 3,
      "componentType": 5126,
      "count": 438,
      "max": [
        0.9622530937194824,
        1.0,
        0.8129688501358032,
        1.0
      ],
      "min": [
        -0.6231119632720947,
        -1.0,
        -0.33261287212371826,
        1.0
      ],
      "type": "VEC4"
    },
    {
      "bufferView": 1,
      "componentType": 5126,
      "count": 438,
      "max": [
        0.9828465580940247,
        0.9761339426040649
      ],
      "min": [
        0.31974396109580994,
        0.3114573359489441
      ],
      "type": "VEC2"
    },
    {
      "bufferView": 0,
      "componentType": 5125,
      "count": 1176,
      "type": "SCALAR"
    },
    {
      "bufferView": 2,
      "byteOffset": 10512,
      "componentType": 5126,
      "count": 419,
      "max": [
        1.000000238418579,
        0.3493298292160034,
        1.6128640174865723
      ],
      "min": [
        -1.000000238418579,
        -0.3373890817165375,
        0.016942322254180908
      ],
      "type": "VEC3"
    },
    {
      "bufferView": 2,
      "byteOffset": 15540,
      "componentType": 5126,
      "count": 419,
      "max": [
        1.0,
        1.0,
        1.0
      ],
      "min": [
        -1.0,
        -1.0,
        -1.0
      ],
      "type": "VEC3"
    },
    {
      "bufferView": 3,
      "byteOffset": 7008,
      "componentType": 5126,
      "count": 419,
      "max": [
        1.0,
        1.0,
        0.99428790807724,
        1.0
      ],
      "min": [
        -1.0,
        -1.0,
        -0.9242433309555054,
        1.0
      ],
      "type": "VEC4"
    },
    {
      "bufferView": 1,
      "byteOffset": 3504,
      "componentType": 5126,
      "count": 419,
      "max": [
        0.9423756003379822,
        0.9426250457763672
      ],
      "min": [
        0.004490343853831291,
        0.004490343853831291
      ],
      "type": "VEC2"
    },
    {
      "bufferView": 0,
      "byteOffset": 4704,
      "componentType": 5125,
      "count": 1332,
      "type": "SCALAR"
    },
    {
      "bufferView": 2,
      "byteOffset": 20568,
      "componentType": 5126,
      "count": 232,
      "max": [
        0.29961493611335754,
        0.299614816904068,
        1.38385009765625
      ],
      "min": [
        -0.29961493611335754,
        -0.2996150553226471,
        0.03432744741439819
      ],
      "type": "VEC3"
    },
    {
      "bufferView": 2,
      "byteOffset": 23352,
      "componentType": 5126,
      "count": 232,
      "max": [
        1.0,
        1.0,
        1.0
      ],
      "min": [
        -1.0,
        -1.0,
        -1.0
      ],
      "type": "VEC3"
    },
    {
      "bufferView": 3,
      "byteOffset": 13712,
      "componentType": 5126,
      "count": 232,
      "max": [
        0.9349151253700256,
        1.0,
        0.6323375105857849,
        1.0
      ],
      "min": [
        -1.0,
        -1.0,
        -0.588520348072052,
        1.0
      ],
      "type": "VEC4"
    },
    {
      "bufferView": 1,
      "byteOffset": 6856,
      "componentType": 5126,
      "count": 232,
      "max": [
        0.9955096244812012,
        0.9410106539726257
      ],
      "min": [
        0.004490343853831291,
        0.004490343853831291
      ],
      "type": "VEC2"
    },
    {
      "bufferView": 0,
      "byteOffset": 10032,
      "componentType": 5125,
      "count": 744,
      "type": "SCALAR"
    },
    {
      "bufferView": 2,
      "byteOffset": 26136,
      "componentType": 5126,
      "count": 474,
      "max": [
        0.12993627786636353,
        0.12993668019771576,
        2.3233022689819336
      ],
      "min": [
        -1.4765055179595947,
        -0.1299365609884262,
        -3.5762786865234375e-07
      ],
      "type": "VEC3"
    },
    {
      "bufferView": 2,
      "byteOffset": 31824,
      "componentType": 5126,
      "count": 474,
      "max": [
        1.0,
        1.0,
        1.0
      ],
      "min": [
        -1.0,
        -1.0,
        -0.9927089810371399
      ],
      "type": "VEC3"
    },
    {
      "bufferView": 3,
      "byteOffset": 17424,
      "componentType": 5126,
      "count": 474,
      "max": [
        1.0,
        1.0,
        0.9999004006385803,
        1.0
      ],
      "min": [
        -1.0,
        -0.999509334564209,
        -0.9132004976272583,
        1.0
      ],
      "type": "VEC4"
    },
    {
      "bufferView": 1,
      "byteOffset": 8712,
      "componentType": 5126,
      "count": 474,
      "max": [
        0.95295649766922,
        0.9265889525413513
      ],
      "min": [
        0.004490343853831291,
        0.004490343853831291
      ],
      "type": "VEC2"
    },
    {
      "bufferView": 0,
      "byteOffset": 13008,
      "componentType": 5125,
      "count": 1794,
      "type": "SCALAR"
    },
    {
      "bufferView": 4,
      "componentType": 5126,
      "count": 49,
      "max": [
        6.666666507720947
      ],
      "min": [
        0.0
      ],
      "type": "SCALAR"
    },
    {
      "bufferView": 5,
      "componentType": 5126,
      "count": 49,
      "max": [
        -0.824148952960968,
        -81.90809631347656,
        0.0
      ],
      "min": [
        -0.824148952960968,
        -279.51312255859375,
        0.0
      ],
      "type": "VEC3"
    },
    {
      "bufferView": 4,
      "byteOffset": 196,
      "componentType": 5126,
      "count": 28,
      "max": [
        6.666666507720947
      ],
      "min": [
        0.0
      ],
      "type": "SCALAR"
    },
    {
      "bufferView": 6,
      "componentType": 5126,
      "count": 28,
      "max": [
        0.2696426808834076,
        0.7071068286895752,
        0.7071067690849304,
        -9.415696666792428e-08
      ],
      "min": [
        9.415695956249692e-08,
        0.6536763906478882,
        0.6536763310432434,
        -0.26964271068573
      ],
      "type": "VEC4"
    },
    {
      "bufferView": 4,
      "byteOffset": 308,
      "componentType": 5126,
      "count": 28,
      "max": [
        6.666666507720947
      ],
      "min": [
        0.0
      ],
      "type": "SCALAR"
    },
    {
      "bufferView": 6,
      "byteOffset": 448,
      "componentType": 5126,
      "count": 28,
      "max": [
        1.2475613546155935e-23,
        1.3303492300610083e-23,
        1.0,
        -1.3315805347247078e-07
      ],
      "min": [
        -9.099867106853531e-24,
        -1.6355948552595717e-23,
        0.9238043427467346,
        -0.38286489248275757
      ],
      "type": "VEC4"
    },
    {
      "bufferView": 4,
      "byteOffset": 420,
      "componentType": 5126,
      "count": 28,
      "max": [
        6.666666507720947
      ],
      "min": [
        0.0
      ],
      "type": "SCALAR"
    },
    {
      "bufferView": 5,
      "byteOffset": 588,
      "componentType": 5126,
      "count": 28,
      "max": [
        0.6732850074768066,
        -2.7474015951156616e-08,
        1.065915584564209
      ],
      "min": [
        0.6732850074768066,
        -2.7474015951156616e-08,
        0.5720261335372925
      ],
      "type": "VEC3"
    },
    {
      "bufferView": 4,
      "byteOffset": 532,
      "componentType": 5126,
      "count": 76,
      "max": [
        6.666666507720947
      ],
      "min": [
        0.0
      ],
      "type": "SCALAR"
    },
    {
      "bufferView": 6,
      "byteOffset": 896,
      "componentType": 5126,
      "count": 76,
      "max": [
        1.3232856906295688e-23,
        1.4681406687812297e-23,
        0.9878745675086975,
        1.0
      ],
      "min": [
        -1.4589561190339225e-23,
        -1.4551413454684548e-23,
        -0.12813718616962433,
        0.15525411069393158
      ],
      "type": "VEC4"
    }
  ],
  "animations": [
    {
      "channels": [
        {
          "sampler": 0,
          "target": {
            "node": 4,
            "path": "translation"
          }
        },
        {
          "sampler": 1,
          "target": {
            "node": 4,
            "path": "rotation"
          }
        },
        {
          "sampler": 2,
          "target": {
            "node": 8,
            "path": "rotation"
          }
        },
        {
          "sampler": 3,
          "target": {
            "node": 10,
            "path": "translation"
          }
        },
        {
          "sampler": 4,
          "target": {
            "node": 10,
            "path": "rotation"
          }
        }
      ],
      "name": "Scene",
      "samplers": [
        {
          "input": 20,
          "interpolation": "LINEAR",
          "output": 21
        },
        {
          "input": 22,
          "interpolation": "LINEAR",
          "output": 23
        },
        {
          "input": 24,
          "interpolation": "LINEAR",
          "output": 25
        },
        {
          "input": 26,
          "interpolation": "LINEAR",
          "output": 27
        },
        {
          "input": 28,
          "interpolation": "LINEAR",
          "output": 29
        }
      ]
    }
  ],
  "asset": {
    "extras": {
      "author": "tediuminteractive (https://sketchfab.com/tediuminteractive)",
      "license": "CC-BY-4.0 (http://creativecommons.org/licenses/by/4.0/)",
      "source": "https://sketchfab.com/3d-models/padlock-key-745c1c723d26498e9681cc0d7d065b3c",
      "title": "Padlock & Key"
    },
    "generator": "Sketchfab-12.63.0",
    "version": "2.0"
  },
  "bufferViews": [
    {
      "buffer": 0,
      "byteLength": 20184,
      "name": "floatBufferViews",
      "target": 34963
    },
    {
      "buffer": 0,
      "byteLength": 12504,
      "byteOffset": 20184,
      "byteStride": 8,
      "name": "floatBufferViews",
      "target": 34962
    },
    {
      "buffer": 0,
      "byteLength": 37512,
      "byteOffset": 32688,
      "byteStride": 12,
      "name": "floatBufferViews",
      "target": 34962
    },
    {
      "buffer": 0,
      "byteLength": 25008,
      "byteOffset": 70200,
      "byteStride": 16,
      "name": "floatBufferViews",
      "target": 34962
    },
    {
      "buffer": 0,
      "byteLength": 836,
      "byteOffset": 95208,
      "name": "floatBufferViews"
    },
    {
      "buffer": 0,
      "byteLength": 924,
      "byteOffset": 96044,
      "byteStride": 12,
      "name": "floatBufferViews"
    },
    {
      "buffer": 0,
      "byteLength": 2112,
      "byteOffset": 96968,
      "byteStride": 16,
      "name": "floatBufferViews"
    }
  ],
  "buffers": [
    {
      "byteLength": 99080,
      "uri": "scene.bin"
    }
  ],
  "images": [
    {
      "uri": "textures/Padlock_baseColor.png"
    },
    {
      "uri": "textures/Padlock_metallicRoughness.png"
    },
    {
      "uri": "textures/Padlock_normal.png"
    }
  ],
  "materials": [
    {
      "doubleSided": true,
      "name": "Padlock",
      "normalTexture": {
        "index": 2
      },
      "pbrMetallicRoughness": {
        "baseColorTexture": {
          "index": 0
        },
        "metallicRoughnessTexture": {
          "index": 1
        }
      }
    }
  ],
  "meshes": [
    {
      "name": "Key_Padlock_0",
      "primitives": [
        {
          "attributes": {
            "NORMAL": 1,
            "POSITION": 0,
            "TANGENT": 2,
            "TEXCOORD_0": 3
          },
          "indices": 4,
          "material": 0,
          "mode": 4
        }
      ]
    },
    {
      "name": "Padlock_Padlock_0",
      "primitives": [
        {
          "attributes": {
            "NORMAL": 6,
            "POSITION": 5,
            "TANGENT": 7,
            "TEXCOORD_0": 8
          },
          "indices": 9,
          "material": 0,
          "mode": 4
        }
      ]
    },
    {
      "name": "Cylinder_Padlock_0",
      "primitives": [
        {
          "attributes": {
            "NORMAL": 11,
            "POSITION": 10,
            "TANGENT": 12,
            "TEXCOORD_0": 13
          },
          "indices": 14,
          "material": 0,
          "mode": 4
        }
      ]
    },
    {
      "name": "Shakle_Padlock_0",
      "primitives": [
        {
          "attributes": {
            "NORMAL": 16,
            "POSITION": 15,
            "TANGENT": 17,
            "TEXCOORD_0": 18
          },
          "indices": 19,
          "material": 0,
          "mode": 4
        }
      ]
    }
  ],
  "nodes": [
    {
      "children": [
        1
      ],
      "matrix": [
        1.0,
        0.0,
        0.0,
        0.0,
        0.0,
        2.220446049250313e-16,
        -1.0,
        0.0,
        0.0,
        1.0,
        2.220446049250313e-16,
        0.0,
        0.0,
        0.0,
        0.0,
        1.0
      ],
      "name": "Sketchfab_model"
    },
    {
      "children": [
        2
      ],
      "matrix": [
        1.0,
        0.0,
        0.0,
        0.0,
        0.0,
        0.0,
        1.0,
        0.0,
        0.0,
        -1.0,
        0.0,
        0.0,
        0.0,
        0.0,
        0.0,
        1.0
      ],
      "name": "padlock.fbx"
    },
    {
      "children": [
        3
      ],
      "name": "Object_2"
    },
    {
      "children": [
        4,
        6
      ],
      "name": "RootNode"
    },
    {
      "children": [
        5
      ],
      "name": "Key",
      "rotation": [
        1.376787679419067e-07,
        0.7071068286895752,
        0.7071067690849304,
        -1.3767878215276141e-07
      ],
      "scale": [
        100.0,
        100.0,
        100.0
      ],
      "translation": [
        -0.824148952960968,
        -257.5261535644531,
        0.0
      ]
    },
    {
      "mesh": 0,
      "name": "Key_Padlock_0"
    },
    {
      "children": [
        7,
        8,
        10
      ],
      "name": "Padlock",
      "rotation": [
        -0.7071068286895752,
        0.0,
        0.0,
        0.7071067094802856
      ],
      "scale": [
        100.0,
        100.0,
        100.0
      ]
    },
    {
      "mesh": 1,
      "name": "Padlock_Padlock_0"
    },
    {
      "children": [
        9
      ],
      "name": "Cylinder",
      "rotation": [
        -9.992064034249497e-31,
        1.3234889800848443e-23,
        1.0,
        -7.549790126404332e-08
      ]
    },
    {
      "mesh": 2,
      "name": "Cylinder_Padlock_0"
    },
    {
      "children": [
        11
      ],
      "name": "Shakle",
      "rotation": [
        -1.3234889800848443e-23,
        -0.0,
        0.0,
        1.0
      ],
      "translation": [
        0.6732850074768066,
        -2.7474015951156616e-08,
        0.5720261335372925
      ]
    },
    {
      "mesh": 3,
      "name": "Shakle_Padlock_0"
    }
  ],
  "samplers": [
    {
      "magFilter": 9729,
      "minFilter": 9987,
      "wrapS": 10497,
      "wrapT": 10497
    }
  ],
  "scene": 0,
  "scenes": [
    {
      "name": "Sketchfab_Scene",
      "nodes": [
        0
      ]
    }
  ],
  "textures": [
    {
      "sampler": 0,
      "source": 0
    },
    {
      "sampler": 0,
      "source": 1
    },
    {
      "sampler": 0,
      "source": 2
    }
  ]
}
